<svg id="Grupo_1276" data-name="Grupo 1276" xmlns="http://www.w3.org/2000/svg" width="56.335" height="44.722" viewBox="0 0 56.335 44.722"><defs><clipPath id="clip-path"><rect id="Rectángulo_117" data-name="Rectángulo 117" width="56.334" height="44.72" fill="none"></rect></clipPath></defs><path id="Trazado_213" data-name="Trazado 213" d="M31.668,0,0,18.284,24.665,32.533,56.32,14.247l.015-.006Z" fill="#ffdda8"></path><path id="Trazado_214" data-name="Trazado 214" d="M.911,18.331,24.74,31.949,55.55,14.281,31.722.533Z" transform="translate(-0.071 -0.041)" fill="#f9c98a"></path><path id="Trazado_215" data-name="Trazado 215" d="M0,32.175l5.149,2.918,5.62,3.22,13.892,7.958V34.083L0,19.842Z" transform="translate(0 -1.549)" fill="#bc7c46"></path><path id="Trazado_216" data-name="Trazado 216" d="M26.758,33.741V45.925L58.411,27.761v-12.3Z" transform="translate(-2.089 -1.207)" fill="#dda866"></path><path id="Trazado_217" data-name="Trazado 217" d="M31.153,38.435v2.942l.17-.1V38.337Z" transform="translate(-2.434 -2.994)" fill="#4f2e16"></path><path id="Trazado_218" data-name="Trazado 218" d="M31.878,38.62l-.124.2-.567-.378-.567,1.033-.124-.062.693-1.258Z" transform="translate(-2.382 -2.981)" fill="#4f2e16"></path><path id="Trazado_219" data-name="Trazado 219" d="M32.989,37.376v2.943l.169-.1V37.278Z" transform="translate(-2.576 -2.911)" fill="#4f2e16"></path><path id="Trazado_220" data-name="Trazado 220" d="M33.712,37.562l-.123.2-.567-.377-.567,1.031-.124-.061.692-1.259Z" transform="translate(-2.524 -2.898)" fill="#4f2e16"></path><g id="Grupo_1277" data-name="Grupo 1277"><g id="Grupo_1276-2" data-name="Grupo 1276" clip-path="url(#clip-path)"><path id="Trazado_221" data-name="Trazado 221" d="M33.6,40.154l-3.157,1.822c-.048.027-.084,0-.084-.05a.182.182,0,0,1,.084-.146L33.6,39.958c.045-.028.083-.005.083.05a.188.188,0,0,1-.083.146" transform="translate(-2.371 -3.119)" fill="#4f2e16"></path><path id="Trazado_222" data-name="Trazado 222" d="M33.533,40.608l-3.1,1.792c-.324.189-.592.037-.592-.342V38.476a1.307,1.307,0,0,1,.592-1.026l3.1-1.792c.324-.187.592-.035.592.343v3.584a1.309,1.309,0,0,1-.592,1.024m-3.1-2.964a.945.945,0,0,0-.424.732v3.583c0,.27.191.379.425.245l3.1-1.791a.939.939,0,0,0,.423-.734V36.1c0-.27-.19-.379-.424-.245Z" transform="translate(-2.33 -2.779)" fill="#4f2e16"></path><path id="Trazado_223" data-name="Trazado 223" d="M37.189,38.331c-.046.028-.084.006-.084-.049v-2.57a.188.188,0,0,1,.084-.147.052.052,0,0,1,.084.05V38.18a.192.192,0,0,1-.085.146" transform="translate(-2.898 -2.777)" fill="#4f2e16"></path><path id="Trazado_224" data-name="Trazado 224" d="M38.566,37.691l-3.1,1.791c-.324.189-.592.035-.592-.342V35.56a1.311,1.311,0,0,1,.592-1.027l3.1-1.792c.324-.189.592-.035.592.343v3.583a1.309,1.309,0,0,1-.592,1.026m-3.1-2.963a.936.936,0,0,0-.424.731v3.584c0,.269.19.378.424.243l3.1-1.791a.931.931,0,0,0,.423-.732V33.18c0-.269-.189-.377-.424-.243Z" transform="translate(-2.723 -2.551)" fill="#4f2e16"></path><path id="Trazado_225" data-name="Trazado 225" d="M38.369,35.722c-.122-.473-.648-.579-1.281-.216A2.8,2.8,0,0,0,35.806,37.2Z" transform="translate(-2.797 -2.756)" fill="#4f2e16"></path><path id="Trazado_226" data-name="Trazado 226" d="M36.706,35.383a.052.052,0,0,1-.084-.049v-.623a.183.183,0,0,1,.084-.145c.048-.028.084-.006.084.048v.625a.186.186,0,0,1-.084.147" transform="translate(-2.86 -2.698)" fill="#4f2e16"></path><path id="Trazado_227" data-name="Trazado 227" d="M37.189,35.1c-.046.027-.084.005-.084-.049V34.43a.184.184,0,0,1,.084-.146c.046-.028.084-.005.084.049v.626a.189.189,0,0,1-.084.146" transform="translate(-2.898 -2.677)" fill="#4f2e16"></path><path id="Trazado_228" data-name="Trazado 228" d="M37.673,34.824c-.046.028-.084.005-.084-.048v-.625A.188.188,0,0,1,37.673,34c.048-.028.084-.005.084.049v.625a.182.182,0,0,1-.084.146" transform="translate(-2.936 -2.655)" fill="#4f2e16"></path><path id="Trazado_229" data-name="Trazado 229" d="M43.558,34.821l-3.1,1.789c-.324.19-.593.036-.592-.342V32.687a1.311,1.311,0,0,1,.593-1.025l3.1-1.79c.324-.189.591-.036.591.34V33.8a1.313,1.313,0,0,1-.59,1.026m-3.105-2.971a.931.931,0,0,0-.424.732v3.592c0,.268.189.378.424.244l3.1-1.792a.935.935,0,0,0,.423-.733V30.309c0-.268-.191-.379-.424-.243Z" transform="translate(-3.113 -2.326)" fill="#4f2e16"></path><path id="Trazado_230" data-name="Trazado 230" d="M42.179,34.924c-.046.027-.084.005-.084-.049V32.312a.191.191,0,0,1,.084-.147.052.052,0,0,1,.084.049V34.78a.189.189,0,0,1-.084.146" transform="translate(-3.287 -2.511)" fill="#4f2e16"></path><path id="Trazado_231" data-name="Trazado 231" d="M42.533,34.9l-.771.444c-.046.028-.084.005-.084-.048a.188.188,0,0,1,.084-.147l.771-.444c.046-.028.084-.005.084.046a.185.185,0,0,1-.084.147" transform="translate(-3.255 -2.709)" fill="#4f2e16"></path><path id="Trazado_232" data-name="Trazado 232" d="M42.935,31.4v1.189a1.12,1.12,0,0,1-.507.88l-.621.359c-.28.162-.507.029-.507-.293V32.34l.307-.178v1.283c0,.053.039.077.084.049a.187.187,0,0,0,.084-.147V32.065Z" transform="translate(-3.225 -2.451)" fill="#4f2e16"></path><path id="Trazado_233" data-name="Trazado 233" d="M15.06,28.5V40.772L9.44,37.553V25.26Z" transform="translate(-0.736 -1.973)" fill="#9b7451"></path><path id="Trazado_234" data-name="Trazado 234" d="M46.7,8.652,15.062,26.918l-.029.022-5.6-3.228v-.029l5.62-3.249L41.079,5.41Z" transform="translate(-0.738 -0.422)" fill="#caaf8f"></path><path id="Trazado_235" data-name="Trazado 235" d="M58,26.86l-6.217,3.589V25.1L58,21.515Z" transform="translate(-4.044 -1.68)" fill="#e5e0dc"></path><path id="Trazado_236" data-name="Trazado 236" d="M57.455,23.2l-5.036,2.906v-.6L57.455,22.6Z" transform="translate(-4.094 -1.766)" fill="#4f2e16"></path><path id="Trazado_237" data-name="Trazado 237" d="M57.455,24.4,52.419,27.3v-.265l5.036-2.906Z" transform="translate(-4.094 -1.884)" fill="#b2aeab"></path><path id="Trazado_238" data-name="Trazado 238" d="M57.455,25.158l-5.036,2.906V27.8l5.036-2.9Z" transform="translate(-4.094 -1.944)" fill="#b2aeab"></path><path id="Trazado_239" data-name="Trazado 239" d="M57.455,25.979l-5.036,2.906v-.268l5.036-2.906Z" transform="translate(-4.094 -2.009)" fill="#b2aeab"></path><path id="Trazado_240" data-name="Trazado 240" d="M57.455,26.741l-5.036,2.906v-.264l5.036-2.906Z" transform="translate(-4.094 -2.068)" fill="#b2aeab"></path></g></g></svg>