<svg id="Grupo_1285" data-name="Grupo 1285" xmlns="http://www.w3.org/2000/svg" xmlns:xlink="http://www.w3.org/1999/xlink" width="56.335" height="70.043" viewBox="0 0 56.335 70.043"><defs><clipPath id="clip-path"><rect id="Rectángulo_119" data-name="Rectángulo 119" width="56.335" height="60.231" fill="none"></rect></clipPath></defs><path id="Trazado_269" data-name="Trazado 269" d="M27.861,0,0,16.087l11.3,6.528,4.922,2.844,12.249,7.074,27.85-16.088.014-.006L44.086,9.364,39.143,6.509Z" fill="#ffdda8"></path><path id="Trazado_270" data-name="Trazado 270" d="M.93,16.188l15.145,8.739,5.671,3.278,6.9,3.874,5.666-3.162L55.757,16.539,28.037.533Z" transform="translate(-0.176 -0.1)" fill="#f9c98a"></path><path id="Trazado_271" data-name="Trazado 271" d="M.041,57.482l11.3,6.475,4.948,2.831,12.223,7-.041-37.52L16.249,29.21,11.3,26.361,0,19.834Z" transform="translate(0 -3.747)" fill="#bc7c46"></path><path id="Trazado_272" data-name="Trazado 272" d="M35.106,36.36V73.831L62.955,57.85V20.276Z" transform="translate(-6.632 -3.83)" fill="#dda866"></path><path id="Trazado_273" data-name="Trazado 273" d="M53.591,35.189v2.589l.149-.087V35.1Z" transform="translate(-10.124 -6.631)" fill="#4f2e16"></path><path id="Trazado_274" data-name="Trazado 274" d="M54.148,35.33l-.106.181-.5-.332-.5.909-.106-.055.609-1.107Z" transform="translate(-9.999 -6.598)" fill="#4f2e16"></path><path id="Trazado_275" data-name="Trazado 275" d="M55.425,34.131v2.588l.149-.086V34.045Z" transform="translate(-10.471 -6.432)" fill="#4f2e16"></path><path id="Trazado_276" data-name="Trazado 276" d="M55.983,34.27l-.106.181-.5-.332-.5.909-.106-.054.609-1.107Z" transform="translate(-10.345 -6.398)" fill="#4f2e16"></path><g id="Grupo_1286" data-name="Grupo 1286"><g id="Grupo_1285-2" data-name="Grupo 1285" clip-path="url(#clip-path)"><path id="Trazado_277" data-name="Trazado 277" d="M55.648,36.894,52.87,38.5c-.041.024-.074,0-.074-.044a.16.16,0,0,1,.074-.127l2.779-1.6c.039-.024.072-.005.072.043a.167.167,0,0,1-.072.128" transform="translate(-9.974 -6.935)" fill="#4f2e16"></path><path id="Trazado_278" data-name="Trazado 278" d="M55.526,36.769,52.8,38.345c-.289.165-.521.032-.521-.3V34.893a1.152,1.152,0,0,1,.521-.9l2.731-1.576c.288-.165.52-.031.52.3v3.156a1.147,1.147,0,0,1-.52.9M52.8,34.165a.827.827,0,0,0-.372.643v3.152c0,.238.168.333.373.211L55.527,36.6a.824.824,0,0,0,.371-.644V32.8c0-.237-.167-.333-.372-.211Z" transform="translate(-9.875 -6.11)" fill="#4f2e16"></path><path id="Trazado_279" data-name="Trazado 279" d="M59.617,34.762c-.041.024-.075.005-.075-.043V32.463a.162.162,0,0,1,.075-.129.047.047,0,0,1,.075.043v2.258a.164.164,0,0,1-.075.127" transform="translate(-11.248 -6.106)" fill="#4f2e16"></path><path id="Trazado_280" data-name="Trazado 280" d="M60.56,33.853l-2.732,1.574c-.289.165-.522.03-.522-.3v-3.15a1.156,1.156,0,0,1,.522-.9l2.729-1.577c.288-.165.52-.03.52.3v3.155a1.151,1.151,0,0,1-.52.9m-2.729-2.608a.829.829,0,0,0-.373.643v3.155c0,.237.168.333.374.211l2.729-1.575a.823.823,0,0,0,.371-.645V29.883c0-.238-.166-.332-.372-.212Z" transform="translate(-10.826 -5.559)" fill="#4f2e16"></path><path id="Trazado_281" data-name="Trazado 281" d="M60.5,32.435c-.106-.416-.571-.51-1.127-.187a2.461,2.461,0,0,0-1.127,1.49Z" transform="translate(-11.002 -6.055)" fill="#4f2e16"></path><path id="Trazado_282" data-name="Trazado 282" d="M59.132,32.05c-.041.024-.074,0-.074-.043v-.549a.158.158,0,0,1,.074-.128.045.045,0,0,1,.074.041v.551a.164.164,0,0,1-.074.129" transform="translate(-11.156 -5.916)" fill="#4f2e16"></path><path id="Trazado_283" data-name="Trazado 283" d="M59.617,31.769c-.041.025-.075,0-.075-.043v-.55a.168.168,0,0,1,.075-.129.046.046,0,0,1,.074.043v.551a.162.162,0,0,1-.074.128" transform="translate(-11.248 -5.863)" fill="#4f2e16"></path><path id="Trazado_284" data-name="Trazado 284" d="M60.1,31.49a.046.046,0,0,1-.073-.043V30.9a.168.168,0,0,1,.073-.13.047.047,0,0,1,.075.043v.552a.163.163,0,0,1-.075.128" transform="translate(-11.339 -5.81)" fill="#4f2e16"></path><path id="Trazado_285" data-name="Trazado 285" d="M65.551,30.982,62.82,32.557c-.288.165-.521.03-.52-.3V29.1a1.155,1.155,0,0,1,.521-.9l2.731-1.575c.287-.166.52-.031.52.3v3.155a1.163,1.163,0,0,1-.52.9m-2.731-2.608a.822.822,0,0,0-.372.646v3.151c0,.238.167.332.372.212l2.731-1.576a.823.823,0,0,0,.371-.646V27.013c0-.237-.167-.334-.371-.212Z" transform="translate(-11.768 -5.016)" fill="#4f2e16"></path><path id="Trazado_286" data-name="Trazado 286" d="M64.6,31.357a.047.047,0,0,1-.075-.043V29.057a.169.169,0,0,1,.075-.13.047.047,0,0,1,.075.043v2.256a.166.166,0,0,1-.075.128" transform="translate(-12.191 -5.462)" fill="#4f2e16"></path><path id="Trazado_287" data-name="Trazado 287" d="M64.867,31.642l-.677.39c-.04.024-.075.005-.075-.04a.166.166,0,0,1,.075-.13l.677-.391a.046.046,0,0,1,.074.043.164.164,0,0,1-.074.129" transform="translate(-12.111 -5.943)" fill="#4f2e16"></path><path id="Trazado_288" data-name="Trazado 288" d="M65.178,28.161v1.058a.987.987,0,0,1-.446.773l-.547.317c-.246.143-.446.026-.446-.259V28.992l.271-.157v1.129c0,.047.033.067.074.043a.167.167,0,0,0,.075-.13V28.75Z" transform="translate(-12.041 -5.32)" fill="#4f2e16"></path><path id="Trazado_289" data-name="Trazado 289" d="M18.881,24.325v33.5l-4.948-2.831V27.178Z" transform="translate(-2.632 -4.595)" fill="#9b7451"></path><path id="Trazado_290" data-name="Trazado 290" d="M46.718,10.882,18.882,26.956l-.026.02-4.923-2.845V24.1l4.948-2.855L41.775,8.03Z" transform="translate(-2.632 -1.517)" fill="#caaf8f"></path><path id="Trazado_291" data-name="Trazado 291" d="M65.836,38.256l-5.47,3.159v-4.7l5.47-3.159Z" transform="translate(-11.404 -6.339)" fill="#e5e0dc"></path><path id="Trazado_292" data-name="Trazado 292" d="M65.436,35.172l-4.43,2.557V37.2l4.43-2.556Z" transform="translate(-11.525 -6.546)" fill="#4f2e16"></path><path id="Trazado_293" data-name="Trazado 293" d="M65.436,36.407l-4.43,2.558v-.233l4.43-2.556Z" transform="translate(-11.525 -6.834)" fill="#b2aeab"></path><path id="Trazado_294" data-name="Trazado 294" d="M65.436,37.169l-4.43,2.557v-.232l4.43-2.557Z" transform="translate(-11.525 -6.977)" fill="#b2aeab"></path><path id="Trazado_295" data-name="Trazado 295" d="M65.436,37.988l-4.43,2.557v-.232l4.43-2.557Z" transform="translate(-11.525 -7.132)" fill="#b2aeab"></path><path id="Trazado_296" data-name="Trazado 296" d="M65.436,38.75l-4.43,2.557v-.232l4.43-2.557Z" transform="translate(-11.525 -7.277)" fill="#b2aeab"></path></g></g></svg>