<svg id="Grupo_1283" data-name="Grupo 1283" xmlns="http://www.w3.org/2000/svg" xmlns:xlink="http://www.w3.org/1999/xlink" width="56.335" height="49.969" viewBox="0 0 56.335 49.969"><defs><clipPath id="clip-path"><rect id="Rectángulo_118" data-name="Rectángulo 118" width="56.334" height="49.969" fill="none"></rect></clipPath></defs><path id="Trazado_241" data-name="Trazado 241" d="M31.668,0,0,18.284l24.666,14.25L56.32,14.248l.015-.005Z" fill="#ffdda8"></path><path id="Trazado_242" data-name="Trazado 242" d="M.911,18.325,24.736,31.941,55.55,14.282,31.721.533Z" transform="translate(-0.071 -0.041)" fill="#f9c98a"></path><path id="Trazado_243" data-name="Trazado 243" d="M0,37.425l5.149,2.917,5.624,3.219,13.892,7.958V34.083L0,19.841Z" transform="translate(0 -1.55)" fill="#bc7c46"></path><path id="Trazado_244" data-name="Trazado 244" d="M26.758,33.736V51.174L58.411,33.01V15.454Z" transform="translate(-2.09 -1.207)" fill="#dda866"></path><path id="Trazado_245" data-name="Trazado 245" d="M31.153,44.131v2.94l.17-.1V44.032Z" transform="translate(-2.433 -3.439)" fill="#4f2e16"></path><path id="Trazado_246" data-name="Trazado 246" d="M31.878,44.316l-.124.2-.567-.378-.568,1.034-.124-.061.693-1.259Z" transform="translate(-2.382 -3.425)" fill="#4f2e16"></path><path id="Trazado_247" data-name="Trazado 247" d="M32.989,43.072v2.943l.168-.1V42.973Z" transform="translate(-2.576 -3.356)" fill="#4f2e16"></path><path id="Trazado_248" data-name="Trazado 248" d="M33.713,43.257l-.124.2-.567-.377-.568,1.032-.124-.06.693-1.259Z" transform="translate(-2.525 -3.342)" fill="#4f2e16"></path><g id="Grupo_1284" data-name="Grupo 1284"><g id="Grupo_1283-2" data-name="Grupo 1283" clip-path="url(#clip-path)"><path id="Trazado_249" data-name="Trazado 249" d="M33.6,45.849l-3.157,1.822a.053.053,0,0,1-.085-.05.181.181,0,0,1,.085-.145L33.6,45.654c.046-.028.083-.005.083.05a.189.189,0,0,1-.083.145" transform="translate(-2.371 -3.565)" fill="#4f2e16"></path><path id="Trazado_250" data-name="Trazado 250" d="M33.533,46.3l-3.1,1.791c-.328.189-.593.037-.593-.341V44.172a1.307,1.307,0,0,1,.593-1.027l3.1-1.792c.325-.188.592-.035.592.343V45.28a1.308,1.308,0,0,1-.592,1.023m-3.1-2.966a.944.944,0,0,0-.424.732v3.589c0,.27.191.38.424.245l3.1-1.791a.94.94,0,0,0,.424-.734V41.8c0-.27-.19-.38-.424-.245Z" transform="translate(-2.33 -3.224)" fill="#4f2e16"></path><path id="Trazado_251" data-name="Trazado 251" d="M37.19,44.026c-.047.028-.085.006-.085-.049V41.409a.189.189,0,0,1,.085-.147.053.053,0,0,1,.085.05v2.566a.193.193,0,0,1-.086.145" transform="translate(-2.898 -3.222)" fill="#4f2e16"></path><path id="Trazado_252" data-name="Trazado 252" d="M38.566,43.388l-3.1,1.795c-.327.189-.593.035-.593-.341V41.256a1.312,1.312,0,0,1,.593-1.027l3.1-1.792c.326-.189.593-.034.593.343v3.583a1.309,1.309,0,0,1-.593,1.027m-3.1-2.966a.937.937,0,0,0-.424.731v3.584c0,.269.19.378.424.244l3.1-1.791a.93.93,0,0,0,.424-.732V38.876c0-.269-.189-.377-.424-.244Z" transform="translate(-2.724 -2.996)" fill="#4f2e16"></path><path id="Trazado_253" data-name="Trazado 253" d="M38.369,41.418c-.122-.474-.648-.578-1.281-.212a2.8,2.8,0,0,0-1.282,1.7Z" transform="translate(-2.796 -3.202)" fill="#4f2e16"></path><path id="Trazado_254" data-name="Trazado 254" d="M36.7,41.079c-.047.028-.084,0-.084-.049v-.622a.182.182,0,0,1,.084-.145c.047-.029.085-.006.085.048v.625a.185.185,0,0,1-.085.146" transform="translate(-2.86 -3.144)" fill="#4f2e16"></path><path id="Trazado_255" data-name="Trazado 255" d="M37.19,40.8c-.047.026-.085.005-.085-.049v-.626a.184.184,0,0,1,.085-.145c.047-.028.084-.005.084.049v.626a.19.19,0,0,1-.084.145" transform="translate(-2.898 -3.121)" fill="#4f2e16"></path><path id="Trazado_256" data-name="Trazado 256" d="M37.673,40.52c-.047.028-.084.005-.084-.047v-.626a.189.189,0,0,1,.084-.146c.048-.029.085-.005.085.049v.625a.181.181,0,0,1-.085.145" transform="translate(-2.936 -3.1)" fill="#4f2e16"></path><path id="Trazado_257" data-name="Trazado 257" d="M43.558,40.516l-3.1,1.791c-.327.19-.593.036-.593-.341V38.381a1.311,1.311,0,0,1,.593-1.025l3.1-1.79c.326-.189.591-.036.591.34V39.49a1.313,1.313,0,0,1-.59,1.025m-3.1-2.966a.93.93,0,0,0-.424.732v3.584c0,.268.189.378.424.245l3.1-1.792a.934.934,0,0,0,.424-.733V36c0-.268-.191-.379-.424-.244Z" transform="translate(-3.113 -2.772)" fill="#4f2e16"></path><path id="Trazado_258" data-name="Trazado 258" d="M42.18,40.62c-.047.026-.085.005-.085-.049V38.009a.191.191,0,0,1,.085-.146.053.053,0,0,1,.085.049v2.567a.19.19,0,0,1-.085.145" transform="translate(-3.287 -2.956)" fill="#4f2e16"></path><path id="Trazado_259" data-name="Trazado 259" d="M42.533,40.6l-.771.441c-.047.028-.085.005-.085-.048a.187.187,0,0,1,.085-.146l.771-.444c.047-.028.084-.005.084.047a.184.184,0,0,1-.084.147" transform="translate(-3.255 -3.155)" fill="#4f2e16"></path><path id="Trazado_260" data-name="Trazado 260" d="M42.936,37.091v1.2a1.12,1.12,0,0,1-.507.879l-.622.359c-.281.162-.507.03-.507-.293v-1.2l.307-.178v1.283c0,.053.039.076.085.049a.188.188,0,0,0,.085-.147V37.761Z" transform="translate(-3.226 -2.897)" fill="#4f2e16"></path><path id="Trazado_261" data-name="Trazado 261" d="M15.06,28.533V46.024L9.436,42.806V25.293Z" transform="translate(-0.737 -1.976)" fill="#9b7451"></path><path id="Trazado_262" data-name="Trazado 262" d="M46.7,8.677,15.06,26.947l-.03.022L9.436,23.736v-.03l5.624-3.249L41.082,5.435Z" transform="translate(-0.737 -0.425)" fill="#caaf8f"></path><path id="Trazado_263" data-name="Trazado 263" d="M58,25.187l-6.218,3.59V23.431L58,19.841Z" transform="translate(-4.044 -1.55)" fill="#e5e0dc"></path><path id="Trazado_264" data-name="Trazado 264" d="M57.455,21.533,52.42,24.44v-.6l5.035-2.906Z" transform="translate(-4.094 -1.635)" fill="#4f2e16"></path><path id="Trazado_265" data-name="Trazado 265" d="M57.455,22.724,52.42,25.632v-.269l5.035-2.906Z" transform="translate(-4.094 -1.754)" fill="#b2aeab"></path><path id="Trazado_266" data-name="Trazado 266" d="M57.455,23.486,52.42,26.393v-.264l5.035-2.907Z" transform="translate(-4.094 -1.814)" fill="#b2aeab"></path><path id="Trazado_267" data-name="Trazado 267" d="M57.455,24.3,52.42,27.212v-.264l5.035-2.907Z" transform="translate(-4.094 -1.877)" fill="#b2aeab"></path><path id="Trazado_268" data-name="Trazado 268" d="M57.455,25.068l-5.036,2.91v-.264L57.455,24.8Z" transform="translate(-4.094 -1.937)" fill="#b2aeab"></path></g></g></svg>