<svg xmlns="http://www.w3.org/2000/svg" width="71.142" height="87.114" viewBox="0 0 71.142 87.114"><g id="Grupo_1285" data-name="Grupo 1285" transform="translate(-8.4 14.536)"><path id="Trazado_269" data-name="Trazado 269" d="M62.078-14.439,8.409,16.444s3.318,2.021,5.936,3.383,4.143,2.339,4.143,2.339l7.383,4.28,24.241-14L79.543-4.443,72.553-9l-4.3-2.485Z" transform="translate(-0.001 -0.012)" fill="#ffdda8"></path><path id="Trazado_270" data-name="Trazado 270" d="M9.609,16.308l5.628,3.518,4.937,2.854,6.009,3.372L31.115,23.3,79.747-4.592,63.174-14.435,33.346,2.684Z" transform="translate(-0.31 -0.1)" fill="#f9c98a"></path><path id="Trazado_271" data-name="Trazado 271" d="M8.4,70.88l2.525,1.474,4.307,2.464,10.639,6.095V34.76L15.232,28.615l-4.307-2.48L8.4,24.616Z" transform="translate(0 -8.334)" fill="#bc7c46"></path><path id="Trazado_272" data-name="Trazado 272" d="M35.106,31.753V77.9L88.775,47.044V.807Z" transform="translate(-9.233 -5.322)" fill="#dda866"></path><g id="Grupo_1286" data-name="Grupo 1286" transform="translate(14.407 -11.064)"><g id="Grupo_6425" data-name="Grupo 6425"><path id="Trazado_289" data-name="Trazado 289" d="M18.24,24.325V53.482l-4.307-2.464V26.809Z" transform="translate(-13.933 4.133)" fill="#9b7451"></path><path id="Trazado_290" data-name="Trazado 290" d="M72.389-8.965,18.241,21.981,18.218,22l-4.285-2.476V19.5l4.307-2.485,49.846-28.46Z" transform="translate(-13.933 11.447)" fill="#caaf8f"></path></g></g><g id="Grupo_6427" data-name="Grupo 6427" transform="translate(56.589 4.175)"><g id="Grupo_6426" data-name="Grupo 6426" transform="translate(0 5.188)"><path id="Trazado_273" data-name="Trazado 273" d="M53.591,35.185V37.66l.143-.083V35.1Z" transform="translate(-53.086 -34.145)" fill="#4f2e16"></path><path id="Trazado_274" data-name="Trazado 274" d="M54.094,35.312l-.1.173-.477-.317-.477.869-.1-.053.582-1.058Z" transform="translate(-52.938 -34.106)" fill="#4f2e16"></path><path id="Trazado_275" data-name="Trazado 275" d="M55.425,34.127V36.6l.143-.082V34.045Z" transform="translate(-53.498 -33.908)" fill="#4f2e16"></path><path id="Trazado_276" data-name="Trazado 276" d="M55.93,34.252l-.1.173-.477-.317-.477.869-.1-.052.582-1.058Z" transform="translate(-53.35 -33.867)" fill="#4f2e16"></path></g><path id="Trazado_277" data-name="Trazado 277" d="M56.6,36.955,52.895,39.1c-.055.032-.1,0-.1-.059a.213.213,0,0,1,.1-.169l3.711-2.141c.052-.032.1-.007.1.058a.223.223,0,0,1-.1.171" transform="translate(-47.611 -25.714)" fill="#4f2e16"></path><path id="Trazado_278" data-name="Trazado 278" d="M56.616,38.252,52.97,40.357c-.385.22-.7.042-.7-.4V35.747a1.538,1.538,0,0,1,.7-1.206l3.646-2.1c.384-.22.695-.041.695.4v4.213a1.532,1.532,0,0,1-.695,1.2M52.97,34.776a1.1,1.1,0,0,0-.5.858v4.209c0,.318.225.445.5.282l3.646-2.1a1.1,1.1,0,0,0,.5-.86V32.954c0-.316-.223-.445-.5-.282Z" transform="translate(-47.654 -26.076)" fill="#4f2e16"></path><path id="Trazado_279" data-name="Trazado 279" d="M59.642,35.579c-.055.032-.1.007-.1-.058V32.509a.216.216,0,0,1,.1-.172.062.062,0,0,1,.1.058v3.015a.219.219,0,0,1-.1.169" transform="translate(-47.051 -26.078)" fill="#4f2e16"></path><path id="Trazado_280" data-name="Trazado 280" d="M61.651,35.337,58,37.438c-.385.22-.7.04-.7-.4V32.83a1.543,1.543,0,0,1,.7-1.206l3.644-2.105c.384-.22.695-.04.695.4v4.212a1.536,1.536,0,0,1-.695,1.2M58,31.855a1.107,1.107,0,0,0-.5.858v4.212c0,.316.225.445.5.282l3.644-2.1a1.1,1.1,0,0,0,.5-.861V30.037c0-.318-.222-.443-.5-.282Z" transform="translate(-47.237 -26.319)" fill="#4f2e16"></path><path id="Trazado_281" data-name="Trazado 281" d="M61.253,32.562c-.141-.555-.762-.681-1.505-.25a3.286,3.286,0,0,0-1.505,1.99Z" transform="translate(-47.159 -26.1)" fill="#4f2e16"></path><path id="Trazado_282" data-name="Trazado 282" d="M59.157,32.295c-.055.032-.1,0-.1-.058V31.5a.21.21,0,0,1,.1-.171.06.06,0,0,1,.1.055v.736a.219.219,0,0,1-.1.172" transform="translate(-47.091 -26.161)" fill="#4f2e16"></path><path id="Trazado_283" data-name="Trazado 283" d="M59.642,32.014c-.055.034-.1,0-.1-.058v-.734a.224.224,0,0,1,.1-.172.062.062,0,0,1,.1.058v.736a.216.216,0,0,1-.1.171" transform="translate(-47.051 -26.184)" fill="#4f2e16"></path><path id="Trazado_284" data-name="Trazado 284" d="M60.128,31.736a.061.061,0,0,1-.1-.058v-.736a.224.224,0,0,1,.1-.174.062.062,0,0,1,.1.058v.737a.217.217,0,0,1-.1.171" transform="translate(-47.009 -26.208)" fill="#4f2e16"></path><path id="Trazado_285" data-name="Trazado 285" d="M66.641,32.465l-3.646,2.1c-.384.22-.7.04-.695-.4V29.958a1.542,1.542,0,0,1,.7-1.2l3.646-2.1c.383-.222.695-.041.695.4v4.212a1.553,1.553,0,0,1-.695,1.2M63,28.985a1.1,1.1,0,0,0-.5.863v4.208c0,.318.223.443.5.282l3.646-2.1a1.1,1.1,0,0,0,.5-.863v-4.2c0-.316-.223-.446-.5-.282Z" transform="translate(-46.822 -26.556)" fill="#4f2e16"></path><path id="Trazado_286" data-name="Trazado 286" d="M64.629,32.174a.062.062,0,0,1-.1-.058V29.1a.226.226,0,0,1,.1-.174.062.062,0,0,1,.1.058V32a.222.222,0,0,1-.1.171" transform="translate(-46.639 -26.36)" fill="#4f2e16"></path><path id="Trazado_287" data-name="Trazado 287" d="M65.119,31.7l-.9.521c-.054.032-.1.007-.1-.054a.222.222,0,0,1,.1-.174l.9-.522a.061.061,0,0,1,.1.058.219.219,0,0,1-.1.172" transform="translate(-46.671 -26.149)" fill="#4f2e16"></path><path id="Trazado_288" data-name="Trazado 288" d="M65.661,28.161v1.412a1.317,1.317,0,0,1-.6,1.032l-.73.424c-.329.191-.6.035-.6-.346V29.271l.361-.209V30.57c0,.062.044.089.1.058a.223.223,0,0,0,.1-.174V28.947Z" transform="translate(-46.703 -26.423)" fill="#4f2e16"></path><path id="Trazado_291" data-name="Trazado 291" d="M67.669,39.831l-7.3,4.218V37.773l7.3-4.218Z" transform="translate(-46.983 -25.975)" fill="#e5e0dc"></path><path id="Trazado_292" data-name="Trazado 292" d="M66.645,35.316,61.006,38.57V37.9l5.639-3.253Z" transform="translate(-46.791 -25.593)" fill="#4f2e16"></path><path id="Trazado_293" data-name="Trazado 293" d="M66.645,36.469l-5.639,3.256v-.3l5.639-3.253Z" transform="translate(-46.791 -25.541)" fill="#b2aeab"></path><path id="Trazado_294" data-name="Trazado 294" d="M66.645,37.232l-5.639,3.255v-.295l5.639-3.255Z" transform="translate(-46.791 -25.516)" fill="#b2aeab"></path><path id="Trazado_295" data-name="Trazado 295" d="M66.645,38.051l-5.639,3.255v-.295l5.639-3.255Z" transform="translate(-46.791 -25.491)" fill="#b2aeab"></path><path id="Trazado_296" data-name="Trazado 296" d="M66.645,38.813l-5.639,3.255v-.295l5.639-3.255Z" transform="translate(-46.791 -25.467)" fill="#b2aeab"></path></g></g></svg>